<svg xmlns="http://www.w3.org/2000/svg" viewBox="0 0 969 848" role="img" aria-label="ALON Sentinel tree icon">
  <defs>
    <linearGradient id="alonBlue" x1="0" y1="0" x2="0" y2="848" gradientUnits="userSpaceOnUse">
      <stop offset="0%" stop-color="#18B7FF"/>
      <stop offset="100%" stop-color="#0052D8"/>
    </linearGradient>
  </defs>
  <g fill="url(#alonBlue)">
  <path d="M 763 193 L 740 195 L 725 217 L 742 247 L 742 279 L 665 352 L 665 459 L 630 494 L 621 493 L 643 469 L 643 393 L 625 392 L 625 466 L 518 578 L 516 517 L 588 448 L 588 367 L 614 341 L 614 289 L 626 278 L 625 260 L 607 249 L 587 263 L 598 289 L 598 333 L 571 360 L 570 441 L 499 509 L 499 547 L 476 570 L 474 508 L 402 437 L 399 348 L 415 332 L 414 313 L 394 298 L 369 311 L 367 332 L 385 349 L 385 446 L 456 516 L 457 828 L 474 828 L 474 597 L 498 576 L 498 828 L 516 827 L 516 605 L 610 511 L 636 511 L 683 465 L 683 359 L 731 314 L 775 317 L 707 385 L 707 405 L 787 328 L 780 303 L 747 298 L 759 282 L 759 249 L 782 227 L 778 205 Z"/>
  <path d="M 302 87 L 282 101 L 278 124 L 298 145 L 298 271 L 337 309 L 337 477 L 352 494 L 342 495 L 306 460 L 306 345 L 220 261 L 220 238 L 238 217 L 232 192 L 207 181 L 184 195 L 182 221 L 203 239 L 203 266 L 214 278 L 182 279 L 167 299 L 229 294 L 289 353 L 289 467 L 333 510 L 366 511 L 416 561 L 417 621 L 258 466 L 187 466 L 157 436 L 158 420 L 143 404 L 123 407 L 113 428 L 124 446 L 146 448 L 180 482 L 250 482 L 417 648 L 416 827 L 434 828 L 434 554 L 355 473 L 354 302 L 315 263 L 315 149 L 333 134 L 338 113 L 325 92 Z"/>
  <path d="M 494 21 L 470 26 L 462 34 L 457 48 L 462 68 L 478 80 L 477 436 L 454 457 L 454 265 L 411 222 L 411 186 L 429 170 L 429 147 L 418 134 L 396 130 L 381 139 L 374 155 L 377 172 L 394 186 L 394 230 L 437 272 L 437 447 L 452 461 L 448 467 L 460 478 L 495 443 L 495 81 L 514 66 L 517 43 L 505 26 Z"/>
  <path d="M 30 394 L 22 407 L 22 425 L 33 439 L 57 445 L 100 509 L 92 523 L 93 536 L 100 545 L 117 549 L 134 539 L 144 548 L 250 548 L 376 672 L 376 827 L 393 828 L 394 666 L 258 531 L 148 531 L 127 508 L 114 501 L 69 436 L 76 422 L 76 409 L 70 397 L 51 387 L 41 388 Z"/>
  <path d="M 942 408 L 931 401 L 917 400 L 908 403 L 898 412 L 894 431 L 900 446 L 864 499 L 830 531 L 712 531 L 578 665 L 578 828 L 596 828 L 596 671 L 720 548 L 839 546 L 878 508 L 914 454 L 929 454 L 943 445 L 949 433 L 949 422 Z"/>
  <path d="M 854 416 L 845 412 L 835 412 L 826 416 L 818 429 L 819 442 L 792 468 L 710 468 L 538 638 L 538 828 L 555 828 L 555 646 L 719 484 L 799 484 L 831 454 L 845 456 L 854 452 L 862 441 L 862 428 Z"/>
  <path d="M 578 135 L 569 135 L 557 140 L 550 147 L 545 158 L 545 169 L 549 178 L 555 185 L 564 190 L 564 223 L 519 269 L 519 454 L 528 450 L 536 443 L 536 276 L 581 231 L 581 190 L 588 187 L 596 180 L 601 169 L 601 158 L 596 146 L 588 139 Z"/>
  <path d="M 894 276 L 886 269 L 875 265 L 869 265 L 859 268 L 848 278 L 845 285 L 844 297 L 847 308 L 797 360 L 795 360 L 791 355 L 783 351 L 774 351 L 765 355 L 759 364 L 758 373 L 760 381 L 707 432 L 707 456 L 774 392 L 782 392 L 790 389 L 796 383 L 800 376 L 805 376 L 860 319 L 879 320 L 890 314 L 896 307 L 899 299 L 899 286 Z"/>
  <path d="M 68 292 L 63 302 L 62 315 L 67 327 L 73 333 L 86 338 L 95 338 L 102 336 L 104 334 L 107 334 L 154 376 L 194 376 L 264 446 L 264 422 L 202 360 L 161 360 L 116 320 L 118 316 L 117 301 L 113 293 L 107 287 L 96 282 L 83 282 L 76 285 Z"/>
  <path d="M 667 94 L 662 94 L 661 93 L 654 94 L 648 96 L 642 100 L 636 107 L 632 118 L 632 128 L 634 135 L 637 140 L 643 146 L 653 151 L 653 267 L 624 295 L 625 297 L 625 310 L 624 311 L 625 317 L 670 274 L 670 151 L 681 145 L 687 138 L 690 131 L 691 120 L 688 110 L 684 104 L 674 96 Z"/>
  <path d="M 75 606 L 79 615 L 85 621 L 93 625 L 105 626 L 112 624 L 119 620 L 123 616 L 128 607 L 216 607 L 250 581 L 225 581 L 209 592 L 128 592 L 126 590 L 124 584 L 116 576 L 109 573 L 99 572 L 87 576 L 78 585 L 75 593 Z"/>
  <path d="M 894 603 L 893 591 L 889 583 L 883 577 L 877 574 L 869 572 L 863 572 L 852 576 L 847 580 L 840 592 L 761 592 L 746 581 L 720 581 L 729 589 L 755 607 L 840 607 L 844 614 L 847 616 L 848 619 L 856 624 L 863 626 L 875 625 L 883 621 L 891 612 Z"/>
  <path d="M 226 625 L 226 636 L 228 642 L 236 651 L 245 655 L 257 655 L 264 652 L 269 648 L 272 644 L 274 638 L 277 636 L 284 636 L 285 637 L 296 637 L 297 636 L 319 637 L 306 622 L 275 622 L 266 610 L 254 605 L 243 606 L 237 609 L 236 611 L 234 611 L 229 617 Z"/>
  <path d="M 743 629 L 741 621 L 734 611 L 724 606 L 715 605 L 702 610 L 697 615 L 693 622 L 666 622 L 653 637 L 693 637 L 697 646 L 704 652 L 712 655 L 723 655 L 731 652 L 738 646 L 742 638 Z"/>
  </g>
</svg>
